<svg width="22" height="27" fill="none" xmlns="http://www.w3.org/2000/svg"><path d="M17.757 14.361a5.938 5.938 0 0 1 2.828-4.982 6.079 6.079 0 0 0-4.79-2.59c-2.015-.21-3.968 1.206-4.995 1.206-1.047 0-2.628-1.184-4.33-1.15a6.378 6.378 0 0 0-5.368 3.274c-2.32 4.018-.59 9.923 1.634 13.171 1.112 1.59 2.412 3.367 4.113 3.304 1.664-.069 2.286-1.061 4.295-1.061 1.99 0 2.574 1.061 4.31 1.021 1.785-.029 2.91-1.597 3.984-3.203a13.157 13.157 0 0 0 1.822-3.71 5.738 5.738 0 0 1-3.503-5.28zm-3.278-9.707a5.847 5.847 0 0 0 1.337-4.19 5.949 5.949 0 0 0-3.849 1.992 5.563 5.563 0 0 0-1.372 4.034 4.919 4.919 0 0 0 3.884-1.836z" fill="#fff"/></svg>