<svg width="32" height="32" fill="none" xmlns="http://www.w3.org/2000/svg"><path d="M2.887 13.573c-.107.582.358 1.093.95 1.093h3.24c.534 0 .972-.42 1.016-.951.242-2.953.949-5.637 2-7.74.386-.771-.384-1.765-1.117-1.31a13.345 13.345 0 0 0-6.09 8.908zm.95 3.76c-.592 0-1.057.512-.95 1.094a13.344 13.344 0 0 0 6.088 8.908c.734.455 1.504-.539 1.118-1.31-1.051-2.104-1.758-4.787-2-7.74a1.028 1.028 0 0 0-1.016-.952h-3.24zm18.07 8.691c-.386.772.384 1.766 1.117 1.311a13.345 13.345 0 0 0 6.089-8.909c.107-.581-.358-1.093-.95-1.093h-3.24c-.534 0-.972.42-1.016.952-.242 2.953-.949 5.636-2 7.74zm6.256-11.358c.592 0 1.057-.511.95-1.093a13.344 13.344 0 0 0-6.089-8.908c-.733-.455-1.503.539-1.117 1.31 1.051 2.103 1.758 4.787 2 7.74.044.532.482.951 1.015.951h3.241zm-8.642-7.498c.956 1.91 1.622 4.527 1.778 7.498H10.7c.155-2.971.822-5.588 1.777-7.498C13.614 4.897 14.937 4 16 4c1.064 0 2.386.897 3.521 3.168zm-7.043 17.664c-.955-1.91-1.621-4.527-1.777-7.499H21.3c-.156 2.972-.822 5.588-1.778 7.499C18.386 27.102 17.064 28 16 28s-2.386-.897-3.521-3.168z" fill="#000"/></svg>