<svg width="24" height="24" fill="none" xmlns="http://www.w3.org/2000/svg"><path d="M19.289 5.756A18.155 18.155 0 0 0 14.956 4.5c-.186.311-.404.73-.554 1.063a17.226 17.226 0 0 0-4.802 0c-.15-.333-.373-.752-.562-1.063-1.52.243-2.976.67-4.335 1.26-2.742 3.823-3.485 7.55-3.114 11.226a17.908 17.908 0 0 0 5.314 2.512c.428-.543.81-1.12 1.138-1.729-.626-.22-1.226-.49-1.792-.805.15-.102.297-.21.439-.32 3.455 1.49 7.21 1.49 10.624 0 .144.11.29.218.44.32a11.58 11.58 0 0 1-1.796.807 12 12 0 0 0 1.138 1.729 17.868 17.868 0 0 0 5.317-2.514c.436-4.26-.745-7.955-3.122-11.23zm-10.777 8.97c-1.038 0-1.888-.894-1.888-1.982s.832-1.983 1.888-1.983c1.055 0 1.906.893 1.887 1.983.002 1.088-.832 1.982-1.887 1.982zm6.976 0c-1.037 0-1.887-.894-1.887-1.982s.832-1.983 1.887-1.983c1.056 0 1.907.893 1.888 1.983 0 1.088-.832 1.982-1.888 1.982z" fill="#666"/></svg>