<svg fill="none" height="32" width="29" xmlns="http://www.w3.org/2000/svg"><linearGradient id="a" gradientUnits="userSpaceOnUse" x1="10.435" x2="-2.357" y1="2.451" y2="15.264"><stop offset="0" stop-color="#00a0ff"/><stop offset=".007" stop-color="#00a1ff"/><stop offset=".26" stop-color="#00beff"/><stop offset=".512" stop-color="#00d2ff"/><stop offset=".76" stop-color="#00dfff"/><stop offset="1" stop-color="#00e3ff"/></linearGradient><linearGradient id="b" gradientUnits="userSpaceOnUse" x1="29.536" x2=".546" y1="15.914" y2="15.914"><stop offset="0" stop-color="#ffe000"/><stop offset=".409" stop-color="#ffbd00"/><stop offset=".775" stop-color="orange"/><stop offset="1" stop-color="#ff9c00"/></linearGradient><linearGradient id="c" gradientUnits="userSpaceOnUse" x1="18.753" x2="-2.924" y1="20.714" y2="42.268"><stop offset="0" stop-color="#ff3a44"/><stop offset="1" stop-color="#c31162"/></linearGradient><linearGradient id="d" gradientUnits="userSpaceOnUse" x1="-2.236" x2="7.425" y1="-1.07" y2="8.551"><stop offset="0" stop-color="#32a071"/><stop offset=".069" stop-color="#2da771"/><stop offset=".476" stop-color="#15cf74"/><stop offset=".801" stop-color="#06e775"/><stop offset="1" stop-color="#00f076"/></linearGradient><linearGradient id="e" gradientUnits="userSpaceOnUse" x1="18.746" x2="1.386" y1="24.153" y2="41.541"><stop offset="0" stop-color="#cc2e36"/><stop offset="1" stop-color="#9c0e4e"/></linearGradient><linearGradient id="f" gradientUnits="userSpaceOnUse" x1="2.926" x2="-8.342" y1="2.455" y2="13.741"><stop offset="0" stop-color="#008de0"/><stop offset=".007" stop-color="#008de0"/><stop offset=".26" stop-color="#00a7e0"/><stop offset=".512" stop-color="#00b8e0"/><stop offset=".76" stop-color="#00c4e0"/><stop offset="1" stop-color="#00c7e0"/></linearGradient><linearGradient id="g" gradientUnits="userSpaceOnUse" x1="29.535" x2=".549" y1="16.003" y2="16.003"><stop offset="0" stop-color="#e0c500"/><stop offset=".409" stop-color="#e0a600"/><stop offset=".775" stop-color="#e09100"/><stop offset="1" stop-color="#e08900"/></linearGradient><linearGradient id="h" gradientUnits="userSpaceOnUse" x1="29.536" x2=".549" y1="16.001" y2="16.001"><stop offset="0" stop-color="#ffe840"/><stop offset=".409" stop-color="#ffce40"/><stop offset=".775" stop-color="#ffbc40"/><stop offset="1" stop-color="#ffb540"/></linearGradient><linearGradient id="i" gradientUnits="userSpaceOnUse" x1="2.914" x2="-7.939" y1="2.471" y2="12.871"><stop offset="0" stop-color="#40b8ff"/><stop offset=".007" stop-color="#40b9ff"/><stop offset=".26" stop-color="#40ceff"/><stop offset=".512" stop-color="#40ddff"/><stop offset=".76" stop-color="#40e7ff"/><stop offset="1" stop-color="#40eaff"/></linearGradient><linearGradient id="j" gradientUnits="userSpaceOnUse" x1="-2.256" x2="5.496" y1="2.072" y2="9.837"><stop offset="0" stop-color="#65b895"/><stop offset=".069" stop-color="#62bd95"/><stop offset=".476" stop-color="#50db97"/><stop offset=".801" stop-color="#44ed98"/><stop offset="1" stop-color="#40f498"/></linearGradient><path d="M1.591 1.134C1.19 1.497.95 2.103.95 2.907v-.181V29.27v-.175c0 .743.206 1.317.555 1.686l.089.085a1.53 1.53 0 0 0 1.058.39c.406 0 .861-.129 1.343-.402l17.39-9.896 5.973-3.4c.759-.432 1.185-.989 1.256-1.556V16c-.071-.569-.497-1.125-1.256-1.557l-5.974-3.4-17.39-9.896C3.512.874 3.056.744 2.65.744a1.54 1.54 0 0 0-1.058.39z" fill="#00c1ff"/><path d="M1.593 30.867l-.09-.085c-.348-.37-.554-.943-.554-1.686v.175V2.73v.176c0-.804.24-1.41.642-1.774L16.435 16z" fill="url(#a)"/><path d="M21.382 20.957L16.434 16l4.948-4.957 5.974 3.4c.758.431 1.184.988 1.255 1.556v.002c-.07.568-.497 1.125-1.255 1.556z" fill="url(#b)"/><path d="M2.648 31.258a1.54 1.54 0 0 1-1.058-.39L16.432 16l4.949 4.957-17.39 9.897c-.482.273-.937.403-1.343.403z" fill="url(#c)"/><path d="M16.434 16.002L1.59 1.135c.282-.255.643-.39 1.057-.39.407 0 .863.13 1.345.404l17.39 9.896z" fill="url(#d)"/><path d="M2.652 31.434a1.55 1.55 0 0 1-1.06-.39.032.032 0 0 0-.003-.004l-.078-.075-.007-.008.089-.09c.282.256.644.391 1.059.39.405 0 .86-.129 1.342-.402l17.39-9.897.111.112-.113.064L3.994 31.03c-.439.25-.856.38-1.233.4a2.22 2.22 0 0 1-.11.003" fill="url(#e)"/><path d="M1.504 30.957c-.349-.37-.555-.943-.555-1.686v-.175c0 .743.206 1.317.555 1.686l.089.085-.09.09z" fill="url(#f)"/><path d="M21.494 21.07l-.111-.111 5.973-3.4c.758-.431 1.184-.988 1.255-1.555 0 .208-.046.416-.138.618-.186.409-.559.794-1.117 1.113z" fill="url(#g)"/><path d="M28.612 16c-.071-.569-.497-1.125-1.256-1.557l-5.973-3.399.111-.111 5.862 3.336c.836.476 1.255 1.103 1.256 1.731z" fill="url(#h)"/><path d="M.95 2.906v-.183c0-.066.001-.13.004-.194v-.012c.037-.64.235-1.14.55-1.472l.087.088C1.19 1.496.95 2.102.95 2.906z" fill="url(#i)"/><path d="M21.383 11.043L3.993 1.146C3.513.872 3.056.743 2.65.743a1.54 1.54 0 0 0-1.058.39l-.087-.089c.027-.029.056-.057.085-.084l.003-.003A1.54 1.54 0 0 1 2.64.567h.01c.405 0 .862.13 1.344.404l17.501 9.96z" fill="url(#j)"/></svg>