<svg width="24" height="24" fill="none" xmlns="http://www.w3.org/2000/svg"><path d="M23 11.16c0-1.365-1.084-2.45-2.405-2.45a2.4 2.4 0 0 0-1.676.684c-1.656-1.205-3.923-1.988-6.446-2.089l1.104-5.26 3.588.782c.04.924.788 1.667 1.715 1.667.946 0 1.715-.783 1.715-1.747 0-.964-.769-1.747-1.715-1.747-.67 0-1.262.402-1.538.984l-4.001-.864a.413.413 0 0 0-.493.342l-1.223 5.863c-2.562.08-4.869.864-6.544 2.089a2.398 2.398 0 0 0-1.676-.683C2.065 8.73 1 9.835 1 11.18c0 1.004.591 1.847 1.42 2.229-.04.24-.06.482-.06.743C2.36 17.928 6.677 21 12 21s9.64-3.052 9.64-6.847c0-.241-.02-.502-.06-.743A2.476 2.476 0 0 0 23 11.16zM6.48 12.909c0-.964.77-1.747 1.715-1.747.947 0 1.715.783 1.715 1.747 0 .963-.768 1.747-1.715 1.747-.946.02-1.715-.784-1.715-1.747zm9.6 4.638c-1.182 1.205-3.43 1.285-4.08 1.285-.67 0-2.918-.1-4.08-1.285a.454.454 0 0 1 0-.642.435.435 0 0 1 .63 0c.75.763 2.326 1.024 3.45 1.024s2.72-.261 3.45-1.024a.435.435 0 0 1 .63 0 .495.495 0 0 1 0 .642zm-.315-2.871c-.946 0-1.715-.783-1.715-1.747 0-.964.769-1.747 1.715-1.747.947 0 1.715.783 1.715 1.747 0 .943-.768 1.747-1.715 1.747z" fill="#666"/></svg>