<svg width="32" height="32" fill="none" xmlns="http://www.w3.org/2000/svg"><mask id="a" fill="#fff"><path d="M10 9a6 6 0 0 1 12 0v9H10V9z"/></mask><path d="M22 18v3h3v-3h-3zm-12 0H7v3h3v-3zm9-9v9h6V9h-6zm3 6H10v6h12v-6zm-9 3V9H7v9h6zm3-12a3 3 0 0 1 3 3h6a9 9 0 0 0-9-9v6zm0-6a9 9 0 0 0-9 9h6a3 3 0 0 1 3-3V0z" fill="#1C1C1C" mask="url(#a)"/><path fill-rule="evenodd" clip-rule="evenodd" d="M6 14a1 1 0 0 0-1 1v13a1 1 0 0 0 1 1h20a1 1 0 0 0 1-1V15a1 1 0 0 0-1-1H6zm10 7a1 1 0 0 1-1-1v-1a1 1 0 1 1 2 0v1a1 1 0 0 1-1 1z" fill="#1C1C1C"/></svg>