<svg width="32" height="32" fill="none" xmlns="http://www.w3.org/2000/svg"><path fill-rule="evenodd" clip-rule="evenodd" d="M14.413 10.659c3.864-4.095 8.852-7.664 13.329-6.4 1.263 4.476-2.306 9.463-6.401 13.328l-.132 6.407a1 1 0 0 1-.4.78l-3.192 2.394a1 1 0 0 1-1.549-.484l-1.32-3.963-.059-.058c.382-1.373-.029-2.986-1.197-4.155-1.169-1.168-2.782-1.58-4.155-1.197l-.058-.058-3.963-1.321a1 1 0 0 1-.484-1.549l2.394-3.192a1 1 0 0 1 .78-.4l6.407-.132zm7.035-.107a1.591 1.591 0 1 0 2.25-2.25 1.591 1.591 0 0 0-2.25 2.25z" fill="#000"/><path d="M7.492 24.509s3.58.169 4.574-.826c.995-.994.961-2.639-.075-3.674-1.035-1.036-2.68-1.07-3.674-.076-.995.995-.825 4.576-.825 4.576z" fill="#000"/></svg>