<svg fill="none" height="24" width="24" xmlns="http://www.w3.org/2000/svg"><g fill="#666"><path d="M9.795 19.674c-.633 0-.52-.244-.746-.843L7.2 12.734l11.48-7.167 1.346.357-1.119 3.048z"/><path d="M9.794 19.674c.486 0 .697-.227.973-.486.421-.406 5.837-5.675 5.837-5.675l-3.324-.811-3.08 1.946-.406 4.864z"/><path d="M10.118 14.712l7.848 5.789c.892.486 1.54.243 1.768-.827l3.194-15.047c.324-1.314-.503-1.897-1.362-1.508L2.822 10.35c-1.281.518-1.265 1.232-.227 1.54l4.816 1.508 11.139-7.02c.519-.324 1.005-.146.616.21z"/></g></svg>