<svg width="32" height="32" fill="none" xmlns="http://www.w3.org/2000/svg"><path d="M25.629 17.526a1.05 1.05 0 0 1-.399-.925 7.56 7.56 0 0 0 0-1.202 1.05 1.05 0 0 1 .399-.925l2.143-1.63a.594.594 0 0 0 .148-.768l-2.467-4.152c-.148-.264-.482-.36-.753-.264l-2.554.998a1.064 1.064 0 0 1-.972-.118 9.05 9.05 0 0 0-1.103-.625 1.072 1.072 0 0 1-.612-.8l-.384-2.611A.596.596 0 0 0 18.47 4h-4.935a.597.597 0 0 0-.604.504l-.385 2.61c-.052.353-.29.647-.611.802a9.55 9.55 0 0 0-1.108.631 1.053 1.053 0 0 1-.96.114L7.305 7.66a.61.61 0 0 0-.752.264l-2.467 4.152a.581.581 0 0 0 .148.768l2.142 1.63c.285.216.428.568.4.925-.016.2-.026.4-.026.601 0 .2.01.402.026.601a1.05 1.05 0 0 1-.4.925l-2.142 1.63a.594.594 0 0 0-.148.768l2.467 4.152c.148.264.481.36.752.264l2.554-.998c.322-.125.684-.073.973.118.352.233.719.442 1.102.625.322.154.56.448.612.8l.385 2.611a.597.597 0 0 0 .604.504h4.935a.596.596 0 0 0 .605-.504l.384-2.61c.052-.353.29-.647.611-.802a9.55 9.55 0 0 0 1.108-.631c.285-.188.643-.238.96-.114L24.7 24.34a.61.61 0 0 0 .753-.264l2.467-4.152a.594.594 0 0 0-.148-.768l-2.143-1.63zM16.003 20.2c-2.381 0-4.318-1.884-4.318-4.2 0-2.316 1.937-4.2 4.318-4.2 2.38 0 4.317 1.884 4.317 4.2 0 2.316-1.936 4.2-4.317 4.2z" fill="#000"/></svg>